<?xml version="1.0" standalone="no"?>
<!DOCTYPE svg PUBLIC "-//W3C//DTD SVG 20010904//EN"
 "http://www.w3.org/TR/2001/REC-SVG-20010904/DTD/svg10.dtd">
<svg version="1.0" xmlns="http://www.w3.org/2000/svg"
 width="183.000000pt" height="183.000000pt" viewBox="0 0 183.000000 183.000000"
 preserveAspectRatio="xMidYMid meet">
<metadata>
Created by potrace 1.11, written by Peter Selinger 2001-2013
</metadata>
<g transform="translate(0.000000,183.000000) scale(0.100000,-0.100000)"
fill="#000000" stroke="none">
<path d="M190 1802 c-35 -5 -88 -30 -111 -53 -10 -10 -16 -19 -12 -19 4 0 0
-6 -8 -12 -8 -7 -20 -24 -26 -38 -6 -17 -9 -272 -8 -760 1 -404 2 -745 3 -757
1 -12 9 -29 18 -37 8 -9 12 -16 9 -16 -4 0 9 -16 28 -35 19 -19 42 -35 50 -35
9 0 18 -4 21 -8 3 -5 220 -8 482 -8 262 1 478 -3 481 -8 3 -4 9 -2 14 5 5 8 9
9 9 3 0 -6 15 -10 36 -9 19 1 37 -2 40 -7 3 -5 10 -6 15 -2 17 10 59 12 65 2
3 -4 10 -5 16 -2 16 10 49 11 81 3 15 -4 25 -4 22 1 -3 5 4 8 15 7 11 -1 20
-5 20 -10 0 -4 5 -5 10 -2 19 11 129 12 134 1 3 -7 5 -6 5 1 1 7 8 10 16 7 8
-4 15 -2 15 3 0 5 10 9 23 8 12 -1 28 3 36 9 8 6 16 10 18 8 10 -7 57 36 77
72 l24 41 -2 755 c-1 820 2 776 -58 833 -60 56 -43 54 -593 56 -280 1 -607 3
-725 4 -118 2 -226 1 -240 -1z"/>
</g>
</svg>
